<svg width="175" height="175" viewBox="0 0 175 175" fill="none" xmlns="http://www.w3.org/2000/svg">
<g clip-path="url(#clip0_2_28)">
<circle cx="87" cy="87" r="69.75" fill="#222222" stroke="white" stroke-width="0.5" stroke-dasharray="1 1"/>
<path d="M54 130L58 115" stroke="#BCC1E0"/>
<path d="M43.0562 136.209L56.2122 121.529L59.2584 141.005L52.2327 134.974L43.0562 136.209Z" fill="#3F51B5"/>
<path d="M89.9438 38L93.9438 23" stroke="#BCC1E0"/>
<path d="M79 44.2092L92.1561 29.529L95.2023 49.0049L88.1766 42.9737L79 44.2092Z" fill="#3F51B5"/>
<path d="M54.3066 64.9077L55.4731 49.4274" stroke="#BCC1E0"/>
<path d="M44.6949 73.0278L54.9195 56.174L61.5035 74.7546L53.4865 70.1219L44.6949 73.0278Z" fill="#3F51B5"/>
<path d="M87.5213 88.644L88.6878 73.1637" stroke="#BCC1E0"/>
<path d="M84.8536 87.9524L91.3554 73.8553" stroke="#00FF1A"/>
<path d="M77.9096 96.7642L88.1341 79.9104L94.7182 98.4911L86.7011 93.8583L77.9096 96.7642Z" fill="#FFEB3B"/>
<path d="M125.868 76.761L131.986 62.4934" stroke="#BCC1E0"/>
<path d="M114.144 81.3294L129.277 68.6968L129.486 88.4084L123.402 81.4283L114.144 81.3294Z" fill="#3F51B5"/>
<path d="M160.591 30.4746L170.349 42.5481" stroke="#BCC1E0"/>
<path d="M162.027 17.9742L166.129 37.2552L148.602 28.2349L157.615 26.1151L162.027 17.9742Z" fill="#3F51B5"/>
<path d="M55.179 163.727L57.3381 169.849H57.4233L59.5824 163.727H60.5057L57.8352 171H56.9261L54.2557 163.727H55.179ZM61.5249 171V165.545H62.3629V171H61.5249ZM61.951 164.636C61.7876 164.636 61.6468 164.581 61.5284 164.469C61.4124 164.358 61.3544 164.224 61.3544 164.068C61.3544 163.912 61.4124 163.778 61.5284 163.667C61.6468 163.556 61.7876 163.5 61.951 163.5C62.1143 163.5 62.254 163.556 62.37 163.667C62.4884 163.778 62.5476 163.912 62.5476 164.068C62.5476 164.224 62.4884 164.358 62.37 164.469C62.254 164.581 62.1143 164.636 61.951 164.636ZM67.7615 166.767L67.0087 166.98C66.9614 166.855 66.8915 166.733 66.7992 166.614C66.7092 166.494 66.5861 166.394 66.4299 166.316C66.2736 166.238 66.0736 166.199 65.8297 166.199C65.4959 166.199 65.2177 166.276 64.9952 166.43C64.775 166.581 64.665 166.774 64.665 167.009C64.665 167.217 64.7407 167.381 64.8922 167.502C65.0437 167.623 65.2805 167.723 65.6025 167.804L66.4121 168.003C66.8998 168.121 67.2632 168.302 67.5023 168.546C67.7414 168.788 67.861 169.099 67.861 169.48C67.861 169.793 67.771 170.072 67.5911 170.318C67.4135 170.564 67.165 170.759 66.8453 170.901C66.5257 171.043 66.1541 171.114 65.7303 171.114C65.1739 171.114 64.7135 170.993 64.3489 170.751C63.9843 170.51 63.7535 170.157 63.6564 169.693L64.4519 169.494C64.5276 169.788 64.6709 170.008 64.8816 170.155C65.0946 170.302 65.3728 170.375 65.7161 170.375C66.1067 170.375 66.4168 170.292 66.6465 170.126C66.8785 169.958 66.9945 169.757 66.9945 169.523C66.9945 169.333 66.9282 169.175 66.7956 169.047C66.6631 168.917 66.4595 168.82 66.1848 168.756L65.2757 168.543C64.7762 168.424 64.4093 168.241 64.1749 167.992C63.9429 167.741 63.8269 167.428 63.8269 167.051C63.8269 166.743 63.9133 166.471 64.0861 166.234C64.2613 165.998 64.4992 165.812 64.7999 165.677C65.1029 165.542 65.4462 165.474 65.8297 165.474C66.3695 165.474 66.7933 165.593 67.101 165.83C67.4112 166.066 67.6313 166.379 67.7615 166.767ZM69.1225 171V165.545H69.9606V171H69.1225ZM69.5487 164.636C69.3853 164.636 69.2444 164.581 69.1261 164.469C69.0101 164.358 68.9521 164.224 68.9521 164.068C68.9521 163.912 69.0101 163.778 69.1261 163.667C69.2444 163.556 69.3853 163.5 69.5487 163.5C69.712 163.5 69.8517 163.556 69.9677 163.667C70.0861 163.778 70.1452 163.912 70.1452 164.068C70.1452 164.224 70.0861 164.358 69.9677 164.469C69.8517 164.581 69.712 164.636 69.5487 164.636ZM71.6092 171V163.727H72.4473V166.412H72.5183C72.5798 166.317 72.6651 166.196 72.774 166.05C72.8852 165.901 73.0439 165.768 73.2498 165.652C73.4582 165.534 73.7399 165.474 74.095 165.474C74.5543 165.474 74.9591 165.589 75.3095 165.819C75.6599 166.049 75.9333 166.374 76.1298 166.795C76.3263 167.217 76.4245 167.714 76.4245 168.287C76.4245 168.865 76.3263 169.365 76.1298 169.789C75.9333 170.21 75.661 170.537 75.313 170.769C74.965 170.999 74.5637 171.114 74.1092 171.114C73.7588 171.114 73.4783 171.056 73.2676 170.94C73.0569 170.821 72.8947 170.687 72.7811 170.538C72.6674 170.387 72.5798 170.261 72.5183 170.162H72.4189V171H71.6092ZM72.4331 168.273C72.4331 168.685 72.4934 169.048 72.6142 169.363C72.7349 169.675 72.9113 169.92 73.1433 170.098C73.3753 170.273 73.6594 170.361 73.9956 170.361C74.3459 170.361 74.6383 170.268 74.8727 170.084C75.1094 169.897 75.287 169.646 75.4054 169.331C75.5261 169.014 75.5865 168.661 75.5865 168.273C75.5865 167.889 75.5273 167.544 75.4089 167.236C75.2929 166.926 75.1165 166.681 74.8798 166.501C74.6454 166.318 74.3507 166.227 73.9956 166.227C73.6547 166.227 73.3682 166.314 73.1362 166.487C72.9042 166.657 72.729 166.896 72.6106 167.204C72.4922 167.509 72.4331 167.866 72.4331 168.273ZM78.5446 163.727V171H77.7065V163.727H78.5446ZM82.3665 171.114C81.8409 171.114 81.3875 170.998 81.0064 170.766C80.6276 170.531 80.3352 170.205 80.1293 169.786C79.9257 169.364 79.8239 168.874 79.8239 168.315C79.8239 167.757 79.9257 167.264 80.1293 166.838C80.3352 166.41 80.6217 166.076 80.9886 165.837C81.358 165.595 81.7888 165.474 82.2812 165.474C82.5653 165.474 82.8459 165.522 83.1229 165.616C83.3999 165.711 83.652 165.865 83.8793 166.078C84.1065 166.289 84.2876 166.568 84.4226 166.916C84.5575 167.264 84.625 167.693 84.625 168.202V168.557H80.4205V167.832H83.7727C83.7727 167.525 83.7112 167.25 83.5881 167.009C83.4673 166.767 83.2945 166.576 83.0696 166.437C82.8471 166.297 82.5843 166.227 82.2812 166.227C81.9474 166.227 81.6586 166.31 81.4148 166.476C81.1733 166.639 80.9875 166.852 80.8572 167.115C80.727 167.378 80.6619 167.66 80.6619 167.96V168.443C80.6619 168.855 80.733 169.204 80.875 169.491C81.0194 169.775 81.2195 169.991 81.4751 170.141C81.7308 170.287 82.0279 170.361 82.3665 170.361C82.5866 170.361 82.7855 170.33 82.9631 170.268C83.143 170.205 83.2981 170.11 83.4283 169.984C83.5585 169.857 83.6591 169.698 83.7301 169.509L84.5398 169.736C84.4545 170.01 84.3113 170.252 84.1101 170.46C83.9089 170.666 83.6603 170.827 83.3643 170.943C83.0684 171.057 82.7358 171.114 82.3665 171.114ZM88.826 171V163.727H91.2834C91.8516 163.727 92.3179 163.824 92.6825 164.018C93.0471 164.21 93.317 164.474 93.4922 164.81C93.6674 165.147 93.755 165.529 93.755 165.957C93.755 166.386 93.6674 166.766 93.4922 167.097C93.317 167.429 93.0483 167.689 92.6861 167.879C92.3239 168.066 91.861 168.159 91.2976 168.159H89.3089V167.364H91.2692C91.6574 167.364 91.9699 167.307 92.2067 167.193C92.4458 167.08 92.6186 166.919 92.7251 166.71C92.834 166.5 92.8885 166.249 92.8885 165.957C92.8885 165.666 92.834 165.412 92.7251 165.194C92.6162 164.976 92.4422 164.808 92.2031 164.69C91.964 164.569 91.648 164.509 91.255 164.509H89.7067V171H88.826ZM92.2493 167.733L94.0391 171H93.0163L91.255 167.733H92.2493ZM96.714 171.128C96.3683 171.128 96.0546 171.063 95.7729 170.933C95.4912 170.8 95.2675 170.609 95.1017 170.361C94.936 170.11 94.8532 169.807 94.8532 169.452C94.8532 169.139 94.9147 168.886 95.0378 168.692C95.1609 168.495 95.3255 168.341 95.5314 168.23C95.7374 168.119 95.9647 168.036 96.2132 167.982C96.4642 167.925 96.7163 167.88 96.9696 167.847C97.3011 167.804 97.5698 167.772 97.7757 167.751C97.9841 167.727 98.1356 167.688 98.2303 167.634C98.3274 167.579 98.3759 167.484 98.3759 167.349V167.321C98.3759 166.971 98.28 166.698 98.0882 166.504C97.8989 166.31 97.6112 166.213 97.2253 166.213C96.8252 166.213 96.5115 166.301 96.2843 166.476C96.057 166.651 95.8972 166.838 95.8049 167.037L95.0094 166.753C95.1515 166.421 95.3408 166.163 95.5776 165.979C95.8167 165.792 96.0771 165.661 96.3588 165.588C96.6429 165.512 96.9223 165.474 97.1969 165.474C97.3721 165.474 97.5733 165.496 97.8006 165.538C98.0302 165.579 98.2516 165.663 98.4647 165.79C98.6801 165.918 98.8588 166.111 99.0009 166.369C99.1429 166.627 99.214 166.973 99.214 167.406V171H98.3759V170.261H98.3333C98.2765 170.38 98.1818 170.506 98.0492 170.641C97.9166 170.776 97.7402 170.891 97.5201 170.986C97.2999 171.08 97.0312 171.128 96.714 171.128ZM96.8418 170.375C97.1732 170.375 97.4526 170.31 97.6799 170.18C97.9095 170.049 98.0823 169.881 98.1983 169.675C98.3167 169.469 98.3759 169.253 98.3759 169.026V168.259C98.3404 168.301 98.2623 168.34 98.1415 168.376C98.0231 168.409 97.8858 168.438 97.7296 168.464C97.5757 168.488 97.4254 168.509 97.2786 168.528C97.1342 168.545 97.017 168.559 96.927 168.571C96.7092 168.599 96.5056 168.646 96.3162 168.71C96.1292 168.771 95.9777 168.865 95.8617 168.99C95.748 169.113 95.6912 169.281 95.6912 169.494C95.6912 169.786 95.7989 170.006 96.0144 170.155C96.2322 170.302 96.508 170.375 96.8418 170.375ZM102.803 171.114C102.349 171.114 101.947 170.999 101.599 170.769C101.251 170.537 100.979 170.21 100.783 169.789C100.586 169.365 100.488 168.865 100.488 168.287C100.488 167.714 100.586 167.217 100.783 166.795C100.979 166.374 101.253 166.049 101.603 165.819C101.953 165.589 102.358 165.474 102.817 165.474C103.173 165.474 103.453 165.534 103.659 165.652C103.867 165.768 104.026 165.901 104.135 166.05C104.246 166.196 104.333 166.317 104.394 166.412H104.465V163.727H105.303V171H104.494V170.162H104.394C104.333 170.261 104.245 170.387 104.131 170.538C104.018 170.687 103.856 170.821 103.645 170.94C103.434 171.056 103.154 171.114 102.803 171.114ZM102.917 170.361C103.253 170.361 103.537 170.273 103.769 170.098C104.001 169.92 104.178 169.675 104.298 169.363C104.419 169.048 104.479 168.685 104.479 168.273C104.479 167.866 104.42 167.509 104.302 167.204C104.183 166.896 104.008 166.657 103.776 166.487C103.544 166.314 103.258 166.227 102.917 166.227C102.562 166.227 102.266 166.318 102.029 166.501C101.795 166.681 101.618 166.926 101.5 167.236C101.384 167.544 101.326 167.889 101.326 168.273C101.326 168.661 101.385 169.014 101.504 169.331C101.624 169.646 101.802 169.897 102.036 170.084C102.273 170.268 102.567 170.361 102.917 170.361ZM106.955 171V165.545H107.793V171H106.955ZM107.381 164.636C107.217 164.636 107.076 164.581 106.958 164.469C106.842 164.358 106.784 164.224 106.784 164.068C106.784 163.912 106.842 163.778 106.958 163.667C107.076 163.556 107.217 163.5 107.381 163.5C107.544 163.5 107.684 163.556 107.8 163.667C107.918 163.778 107.977 163.912 107.977 164.068C107.977 164.224 107.918 164.358 107.8 164.469C107.684 164.581 107.544 164.636 107.381 164.636ZM112.765 168.77V165.545H113.603V171H112.765V170.077H112.708C112.58 170.354 112.382 170.589 112.112 170.783C111.842 170.975 111.501 171.071 111.089 171.071C110.748 171.071 110.445 170.996 110.18 170.847C109.915 170.696 109.706 170.469 109.555 170.165C109.403 169.86 109.328 169.475 109.328 169.011V165.545H110.166V168.955C110.166 169.352 110.277 169.67 110.499 169.906C110.724 170.143 111.011 170.261 111.359 170.261C111.567 170.261 111.779 170.208 111.994 170.102C112.212 169.995 112.395 169.832 112.541 169.612C112.691 169.391 112.765 169.111 112.765 168.77ZM119.002 166.767L118.249 166.98C118.202 166.855 118.132 166.733 118.039 166.614C117.949 166.494 117.826 166.394 117.67 166.316C117.514 166.238 117.314 166.199 117.07 166.199C116.736 166.199 116.458 166.276 116.235 166.43C116.015 166.581 115.905 166.774 115.905 167.009C115.905 167.217 115.981 167.381 116.132 167.502C116.284 167.623 116.521 167.723 116.843 167.804L117.652 168.003C118.14 168.121 118.503 168.302 118.743 168.546C118.982 168.788 119.101 169.099 119.101 169.48C119.101 169.793 119.011 170.072 118.831 170.318C118.654 170.564 118.405 170.759 118.086 170.901C117.766 171.043 117.394 171.114 116.971 171.114C116.414 171.114 115.954 170.993 115.589 170.751C115.225 170.51 114.994 170.157 114.897 169.693L115.692 169.494C115.768 169.788 115.911 170.008 116.122 170.155C116.335 170.302 116.613 170.375 116.956 170.375C117.347 170.375 117.657 170.292 117.887 170.126C118.119 169.958 118.235 169.757 118.235 169.523C118.235 169.333 118.168 169.175 118.036 169.047C117.903 168.917 117.7 168.82 117.425 168.756L116.516 168.543C116.016 168.424 115.65 168.241 115.415 167.992C115.183 167.741 115.067 167.428 115.067 167.051C115.067 166.743 115.154 166.471 115.326 166.234C115.502 165.998 115.739 165.812 116.04 165.677C116.343 165.542 116.686 165.474 117.07 165.474C117.61 165.474 118.033 165.593 118.341 165.83C118.651 166.066 118.872 166.379 119.002 166.767Z" fill="white"/>
<path d="M98 71.7812L97.6915 66.0159L92.8529 69.1657L98 71.7812ZM85.2663 67.4661C88.9805 65.7643 92.6332 65.9226 95.1998 68.3716L95.8902 67.6482C92.9308 64.8245 88.7979 64.748 84.8498 66.5569L85.2663 67.4661Z" fill="#BCC1E0"/>
</g>
<defs>
<clipPath id="clip0_2_28">
<rect width="175" height="175" fill="white"/>
</clipPath>
</defs>
</svg>
