<svg width="175" height="175" viewBox="0 0 175 175" fill="none" xmlns="http://www.w3.org/2000/svg">
<path d="M14.5526 140.778L15.856 121.108L30.2646 134.561L21.0145 134.146L14.5526 140.778Z" fill="#FFEB3B"/>
<path d="M145 51.1383L157.977 36.2991L161.259 55.7365L154.161 49.7913L145 51.1383Z" fill="#FFEB3B"/>
<path d="M150.14 85.5878C150.148 85.9182 150.153 86.2492 150.156 86.5809L149.906 86.5828C149.907 86.7479 149.907 86.9133 149.907 87.0787C149.907 87.2442 149.907 87.4095 149.906 87.5747L150.156 87.5767C150.153 87.9083 150.148 88.2393 150.14 88.5697L149.89 88.5639C149.883 88.893 149.872 89.2214 149.86 89.5492L150.11 89.5589C150.097 89.8888 150.082 90.218 150.064 90.5466L149.814 90.5331C149.796 90.8631 149.776 91.1924 149.753 91.521L150.002 91.5384C149.979 91.8683 149.954 92.1975 149.926 92.526L149.676 92.5047C149.648 92.8319 149.618 93.1584 149.585 93.4842L149.834 93.5094C149.8 93.8395 149.764 94.1688 149.726 94.4974L149.477 94.4683C149.439 94.7957 149.398 95.1223 149.355 95.4481L149.603 95.481C149.559 95.8081 149.513 96.1344 149.465 96.4599L149.217 96.423C149.169 96.7493 149.118 97.0748 149.064 97.3995L149.311 97.4402C149.257 97.7668 149.2 98.0925 149.141 98.4174L148.895 98.3727C148.836 98.6963 148.775 99.019 148.712 99.3408L148.957 99.3893C148.893 99.7138 148.826 100.037 148.757 100.36L148.512 100.308C148.443 100.63 148.372 100.952 148.298 101.272L148.541 101.328C148.467 101.65 148.39 101.971 148.311 102.291L148.068 102.231C147.989 102.551 147.908 102.869 147.824 103.187L148.065 103.251C147.981 103.571 147.893 103.89 147.804 104.208L147.563 104.14C147.474 104.457 147.383 104.773 147.289 105.087L147.528 105.159C147.434 105.475 147.337 105.791 147.237 106.105L146.999 106.03C146.9 106.344 146.798 106.658 146.694 106.97L146.931 107.049C146.826 107.363 146.719 107.675 146.61 107.986L146.374 107.903C146.265 108.214 146.154 108.523 146.04 108.831L146.275 108.917C146.16 109.228 146.043 109.537 145.924 109.846L145.691 109.755C145.572 110.062 145.451 110.368 145.327 110.673L145.559 110.767C145.435 111.073 145.308 111.377 145.18 111.681L144.95 111.583C144.821 111.887 144.69 112.189 144.557 112.49L144.785 112.591C144.651 112.893 144.515 113.194 144.377 113.494L144.15 113.389C144.012 113.688 143.872 113.985 143.73 114.281L143.955 114.389C143.811 114.687 143.666 114.984 143.518 115.28L143.294 115.168C143.147 115.462 142.997 115.755 142.845 116.047L143.067 116.162C142.915 116.455 142.76 116.747 142.603 117.037L142.383 116.918C142.227 117.208 142.068 117.496 141.907 117.783L142.125 117.905C141.963 118.194 141.799 118.481 141.633 118.766L141.417 118.64C141.251 118.924 141.084 119.207 140.914 119.489L141.128 119.618C140.957 119.901 140.784 120.182 140.609 120.463L140.397 120.33C140.223 120.609 140.046 120.887 139.867 121.163L140.077 121.299C139.898 121.576 139.716 121.852 139.533 122.126L139.325 121.987C139.142 122.261 138.957 122.533 138.769 122.803L138.975 122.946C138.787 123.217 138.597 123.487 138.404 123.756L138.201 123.61C138.01 123.878 137.816 124.144 137.621 124.408L137.821 124.557C137.625 124.822 137.426 125.086 137.226 125.349L137.027 125.197C136.827 125.459 136.625 125.718 136.422 125.977L136.618 126.132C136.413 126.391 136.207 126.648 135.998 126.904L135.804 126.746C135.596 127.002 135.386 127.255 135.175 127.507L135.366 127.668C135.153 127.92 134.938 128.172 134.722 128.421L134.533 128.257C134.317 128.505 134.1 128.752 133.88 128.997L134.066 129.164C133.846 129.41 133.624 129.654 133.399 129.897L133.216 129.727C132.992 129.968 132.767 130.208 132.54 130.446L132.721 130.619C132.493 130.858 132.263 131.095 132.031 131.33L131.853 131.155C131.622 131.389 131.389 131.622 131.155 131.853L131.33 132.031C131.095 132.263 130.858 132.493 130.619 132.721L130.446 132.54C130.208 132.767 129.968 132.992 129.727 133.216L129.897 133.399C129.654 133.624 129.41 133.846 129.164 134.066L128.997 133.88C128.752 134.1 128.505 134.317 128.257 134.533L128.421 134.722C128.172 134.938 127.92 135.153 127.668 135.366L127.507 135.175C127.255 135.386 127.002 135.596 126.746 135.804L126.904 135.998C126.648 136.207 126.391 136.413 126.132 136.618L125.977 136.422C125.718 136.625 125.459 136.827 125.197 137.027L125.349 137.226C125.087 137.426 124.822 137.625 124.557 137.821L124.408 137.62C124.144 137.816 123.878 138.01 123.61 138.201L123.756 138.404C123.487 138.597 123.217 138.787 122.946 138.975L122.803 138.769C122.533 138.957 122.261 139.142 121.987 139.325L122.126 139.533C121.852 139.716 121.576 139.898 121.299 140.077L121.163 139.867C120.887 140.046 120.609 140.223 120.33 140.397L120.463 140.609C120.182 140.784 119.901 140.957 119.618 141.128L119.489 140.914C119.207 141.084 118.924 141.251 118.64 141.417L118.766 141.633C118.481 141.799 118.194 141.963 117.906 142.125L117.783 141.907C117.496 142.068 117.208 142.227 116.918 142.383L117.037 142.603C116.747 142.76 116.455 142.915 116.162 143.067L116.047 142.845C115.755 142.997 115.462 143.147 115.168 143.294L115.28 143.518C114.984 143.666 114.687 143.811 114.389 143.955L114.281 143.73C113.985 143.872 113.688 144.012 113.389 144.15L113.494 144.377C113.194 144.515 112.893 144.651 112.591 144.785L112.49 144.557C112.189 144.69 111.887 144.821 111.583 144.95L111.681 145.18C111.377 145.308 111.073 145.435 110.767 145.559L110.673 145.327C110.368 145.451 110.062 145.572 109.755 145.691L109.846 145.924C109.537 146.043 109.228 146.16 108.917 146.275L108.831 146.04C108.523 146.154 108.214 146.265 107.903 146.374L107.986 146.61C107.675 146.719 107.363 146.826 107.049 146.931L106.97 146.694C106.658 146.798 106.344 146.9 106.03 146.999L106.105 147.237C105.791 147.337 105.475 147.434 105.159 147.528L105.087 147.289C104.773 147.383 104.457 147.474 104.14 147.563L104.208 147.804C103.89 147.893 103.571 147.981 103.251 148.065L103.187 147.824C102.869 147.908 102.551 147.989 102.231 148.068L102.291 148.311C101.971 148.39 101.65 148.467 101.328 148.541L101.272 148.298C100.952 148.372 100.63 148.443 100.308 148.512L100.36 148.757C100.037 148.826 99.7138 148.893 99.3893 148.957L99.3408 148.712C99.019 148.775 98.6963 148.836 98.3727 148.895L98.4173 149.141C98.0925 149.2 97.7668 149.257 97.4402 149.311L97.3994 149.064C97.0748 149.118 96.7493 149.169 96.423 149.217L96.4599 149.465C96.1344 149.513 95.8081 149.559 95.481 149.603L95.448 149.355C95.1222 149.398 94.7956 149.439 94.4683 149.478L94.4974 149.726C94.1688 149.764 93.8394 149.8 93.5093 149.834L93.4841 149.585C93.1584 149.618 92.8319 149.648 92.5047 149.676L92.526 149.926C92.1975 149.954 91.8683 149.979 91.5384 150.002L91.5209 149.753C91.1923 149.776 90.863 149.796 90.533 149.814L90.5465 150.064C90.218 150.082 89.8887 150.097 89.5588 150.11L89.5492 149.86C89.2214 149.872 88.8929 149.883 88.5638 149.89L88.5696 150.14C88.2392 150.148 87.9082 150.153 87.5766 150.156L87.5747 149.906C87.4095 149.907 87.2442 149.907 87.0787 149.907C86.9132 149.907 86.7479 149.907 86.5827 149.906L86.5808 150.156C86.2492 150.153 85.9182 150.148 85.5878 150.14L85.5936 149.89C85.2645 149.883 84.936 149.872 84.6082 149.86L84.5986 150.11C84.2687 150.097 83.9394 150.082 83.6109 150.064L83.6244 149.814C83.2944 149.796 82.9651 149.776 82.6365 149.753L82.619 150.002C82.2891 149.979 81.9599 149.954 81.6314 149.926L81.6527 149.676C81.3255 149.648 80.999 149.618 80.6733 149.585L80.6481 149.834C80.318 149.8 79.9886 149.764 79.66 149.726L79.6891 149.478C79.3618 149.439 79.0352 149.398 78.7094 149.355L78.6764 149.603C78.3493 149.559 78.023 149.513 77.6976 149.465L77.7344 149.217C77.4081 149.169 77.0826 149.118 76.758 149.064L76.7172 149.311C76.3907 149.257 76.0649 149.2 75.7401 149.141L75.7847 148.895C75.4612 148.836 75.1385 148.775 74.8166 148.712L74.7681 148.957C74.4436 148.893 74.12 148.826 73.7973 148.757L73.8497 148.512C73.5273 148.443 73.2058 148.372 72.8852 148.298L72.829 148.541C72.5071 148.467 72.1862 148.39 71.8663 148.311L71.9264 148.068C71.6068 147.989 71.2883 147.908 70.9707 147.824L70.9067 148.065C70.5867 147.981 70.2676 147.893 69.9496 147.804L70.0173 147.563C69.7005 147.474 69.3848 147.383 69.0701 147.289L68.9985 147.528C68.682 147.434 68.3666 147.337 68.0522 147.237L68.1275 146.999C67.8131 146.9 67.4998 146.798 67.1875 146.694L67.1084 146.931C66.7949 146.826 66.4825 146.719 66.1712 146.61L66.2541 146.374C65.9438 146.265 65.6346 146.154 65.3266 146.04L65.2401 146.275C64.9295 146.16 64.6201 146.043 64.3119 145.924L64.4022 145.691C64.0952 145.572 63.7894 145.451 63.4848 145.327L63.3908 145.559C63.0849 145.435 62.7802 145.308 62.4767 145.18L62.5743 144.95C62.2708 144.821 61.9685 144.69 61.6675 144.557L61.5663 144.785C61.2641 144.651 60.9631 144.515 60.6634 144.377L60.7682 144.15C60.4697 144.012 60.1725 143.872 59.8765 143.73L59.7681 143.955C59.47 143.811 59.1732 143.666 58.8777 143.518L58.9896 143.294C58.6952 143.147 58.4022 142.997 58.1105 142.845L57.995 143.067C57.7022 142.915 57.4106 142.76 57.1205 142.603L57.2394 142.383C56.9496 142.227 56.6613 142.068 56.3743 141.907L56.252 142.125C55.9637 141.963 55.6769 141.799 55.3915 141.633L55.5173 141.417C55.233 141.251 54.9502 141.084 54.6688 140.914L54.5396 141.128C54.2566 140.957 53.975 140.784 53.6949 140.609L53.8274 140.397C53.5482 140.223 53.2705 140.046 52.9944 139.867L52.8586 140.077C52.5813 139.898 52.3055 139.716 52.0312 139.533L52.1703 139.325C51.8968 139.142 51.6247 138.957 51.3543 138.769L51.2119 138.975C50.9403 138.787 50.6701 138.597 50.4016 138.404L50.5471 138.201C50.2796 138.01 50.0137 137.816 49.7493 137.621L49.6006 137.821C49.335 137.625 49.071 137.426 48.8085 137.226L48.9604 137.027C48.6989 136.827 48.439 136.626 48.1808 136.422L48.0259 136.618C47.7666 136.413 47.509 136.207 47.253 135.998L47.411 135.804C47.1559 135.596 46.9025 135.386 46.6508 135.175L46.4898 135.366C46.237 135.153 45.9859 134.938 45.7366 134.722L45.9005 134.533C45.6521 134.317 45.4054 134.1 45.1604 133.88L44.9936 134.066C44.7476 133.846 44.5033 133.624 44.2608 133.399L44.4306 133.216C44.189 132.992 43.9492 132.767 43.7112 132.54L43.5386 132.721C43.2996 132.493 43.0624 132.263 42.827 132.031L43.0024 131.853C42.768 131.622 42.5353 131.389 42.3045 131.155L42.1264 131.33C41.8946 131.095 41.6648 130.858 41.4367 130.619L41.6176 130.446C41.3904 130.208 41.1652 129.968 40.9417 129.727L40.7582 129.897C40.5339 129.654 40.3116 129.41 40.0911 129.164L40.2773 128.997C40.0577 128.752 39.8401 128.505 39.6243 128.257L39.4356 128.421C39.219 128.172 39.0043 127.92 38.7916 127.668L38.9829 127.507C38.7711 127.255 38.5612 127.002 38.3533 126.746L38.1595 126.904C37.9509 126.648 37.7442 126.391 37.5396 126.132L37.7358 125.977C37.532 125.718 37.3301 125.459 37.1302 125.197L36.9316 125.349C36.731 125.087 36.5325 124.822 36.336 124.557L36.537 124.408C36.3414 124.144 36.1478 123.878 35.9563 123.61L35.7531 123.756C35.5608 123.487 35.3706 123.217 35.1825 122.946L35.388 122.803C35.2007 122.533 35.0155 122.261 34.8324 121.987L34.6246 122.126C34.441 121.852 34.2595 121.576 34.0801 121.299L34.29 121.163C34.1113 120.887 33.9347 120.609 33.7603 120.33L33.5483 120.463C33.3732 120.182 33.2003 119.901 33.0295 119.618L33.2435 119.489C33.0738 119.207 32.9061 118.924 32.7407 118.64L32.5246 118.766C32.3585 118.481 32.1945 118.194 32.0328 117.906L32.2508 117.783C32.0897 117.496 31.9309 117.208 31.7742 116.918L31.5543 117.037C31.3974 116.747 31.2427 116.455 31.0903 116.162L31.312 116.047C31.1602 115.755 31.0106 115.462 30.8632 115.168L30.6397 115.28C30.4917 114.984 30.346 114.687 30.2026 114.389L30.4279 114.281C30.2855 113.985 30.1454 113.688 30.0076 113.389L29.7806 113.494C29.6422 113.194 29.5061 112.893 29.3723 112.591L29.6009 112.49C29.4676 112.189 29.3366 111.887 29.2079 111.583L28.9778 111.681C28.8491 111.377 28.7227 111.073 28.5987 110.767L28.8304 110.673C28.7069 110.368 28.5857 110.062 28.4668 109.755L28.2337 109.846C28.1144 109.537 27.9974 109.228 27.8828 108.917L28.1173 108.831C28.0036 108.523 27.8923 108.214 27.7833 107.903L27.5475 107.986C27.4381 107.675 27.3312 107.363 27.2266 107.049L27.4638 106.97C27.3597 106.658 27.2579 106.344 27.1586 106.03L26.9202 106.105C26.8208 105.791 26.7239 105.475 26.6294 105.159L26.8689 105.087C26.7749 104.773 26.6833 104.457 26.5942 104.14L26.3535 104.208C26.264 103.89 26.1769 103.571 26.0922 103.251L26.3339 103.187C26.2499 102.869 26.1683 102.551 26.0892 102.231L25.8466 102.291C25.7673 101.971 25.6905 101.65 25.6162 101.328L25.8598 101.272C25.7858 100.952 25.7142 100.63 25.6451 100.308L25.4007 100.36C25.3315 100.037 25.2648 99.7138 25.2006 99.3893L25.4459 99.3408C25.3822 99.019 25.321 98.6963 25.2623 98.3727L25.0163 98.4173C24.9573 98.0925 24.9009 97.7668 24.8469 97.4402L25.0936 97.3994C25.0399 97.0748 24.9887 96.7493 24.9401 96.423L24.6928 96.4599C24.6443 96.1344 24.5983 95.8081 24.5547 95.481L24.8025 95.448C24.7592 95.1222 24.7183 94.7957 24.68 94.4683L24.4317 94.4974C24.3932 94.1688 24.3572 93.8394 24.3238 93.5093L24.5725 93.4842C24.5395 93.1584 24.509 92.8319 24.481 92.5047L24.2319 92.526C24.2038 92.1975 24.1783 91.8683 24.1552 91.5384L24.4046 91.521C24.3816 91.1923 24.3612 90.863 24.3433 90.533L24.0937 90.5465C24.0759 90.218 24.0606 89.8887 24.0479 89.5588L24.2977 89.5492C24.285 89.2214 24.2748 88.8929 24.2672 88.5638L24.0173 88.5696C24.0096 88.2392 24.0045 87.9082 24.0019 87.5766L24.2519 87.5747C24.2506 87.4095 24.25 87.2442 24.25 87.0787C24.25 86.9132 24.2506 86.7479 24.2519 86.5827L24.0019 86.5808C24.0045 86.2492 24.0096 85.9182 24.0173 85.5878L24.2672 85.5936C24.2748 85.2645 24.285 84.936 24.2977 84.6082L24.0479 84.5986C24.0606 84.2687 24.0759 83.9394 24.0937 83.6109L24.3433 83.6244C24.3612 83.2944 24.3816 82.9651 24.4046 82.6365L24.1552 82.619C24.1783 82.2891 24.2038 81.9599 24.2319 81.6314L24.481 81.6527C24.509 81.3255 24.5395 80.999 24.5725 80.6733L24.3238 80.6481C24.3572 80.318 24.3932 79.9886 24.4317 79.66L24.68 79.6891C24.7183 79.3618 24.7592 79.0352 24.8025 78.7094L24.5547 78.6764C24.5983 78.3493 24.6443 78.023 24.6928 77.6976L24.9401 77.7344C24.9887 77.4081 25.0399 77.0826 25.0936 76.758L24.8469 76.7172C24.9009 76.3907 24.9573 76.0649 25.0163 75.7401L25.2623 75.7847C25.321 75.4612 25.3822 75.1385 25.4459 74.8167L25.2006 74.7681C25.2648 74.4436 25.3315 74.12 25.4007 73.7973L25.6451 73.8497C25.7142 73.5273 25.7858 73.2058 25.8598 72.8852L25.6162 72.829C25.6906 72.5071 25.7673 72.1862 25.8466 71.8663L26.0892 71.9264C26.1683 71.6068 26.2499 71.2883 26.3339 70.9707L26.0922 70.9068C26.1769 70.5867 26.264 70.2676 26.3535 69.9496L26.5942 70.0173C26.6833 69.7006 26.7749 69.3848 26.8689 69.0701L26.6294 68.9985C26.7239 68.682 26.8208 68.3666 26.9202 68.0522L27.1586 68.1275C27.2579 67.8131 27.3597 67.4998 27.4638 67.1875L27.2266 67.1084C27.3312 66.7949 27.4381 66.4826 27.5474 66.1713L27.7833 66.2541C27.8923 65.9438 28.0036 65.6347 28.1173 65.3266L27.8828 65.2401C27.9974 64.9295 28.1143 64.6201 28.2337 64.3119L28.4668 64.4022C28.5857 64.0952 28.7069 63.7894 28.8304 63.4848L28.5987 63.3908C28.7227 63.0849 28.8491 62.7802 28.9778 62.4767L29.2079 62.5743C29.3366 62.2708 29.4676 61.9685 29.6009 61.6675L29.3723 61.5663C29.5061 61.2641 29.6422 60.9631 29.7806 60.6634L30.0075 60.7682C30.1454 60.4697 30.2855 60.1725 30.4279 59.8765L30.2026 59.7682C30.346 59.47 30.4917 59.1732 30.6396 58.8777L30.8632 58.9896C31.0106 58.6952 31.1602 58.4022 31.312 58.1105L31.0903 57.995C31.2427 57.7022 31.3974 57.4106 31.5543 57.1205L31.7742 57.2394C31.9309 56.9497 32.0897 56.6613 32.2508 56.3743L32.0328 56.252C32.1945 55.9638 32.3585 55.6769 32.5246 55.3915L32.7406 55.5173C32.9061 55.233 33.0737 54.9502 33.2435 54.6688L33.0295 54.5397C33.2002 54.2566 33.3732 53.975 33.5482 53.6949L33.7602 53.8274C33.9347 53.5482 34.1113 53.2706 34.29 52.9944L34.0801 52.8586C34.2595 52.5813 34.441 52.3055 34.6246 52.0312L34.8324 52.1703C35.0155 51.8968 35.2007 51.6247 35.388 51.3543L35.1825 51.2119C35.3706 50.9403 35.5608 50.6701 35.753 50.4016L35.9563 50.5471C36.1478 50.2796 36.3414 50.0137 36.5369 49.7493L36.336 49.6006C36.5325 49.335 36.731 49.071 36.9316 48.8086L37.1302 48.9604C37.3301 48.6989 37.5319 48.439 37.7358 48.1808L37.5396 48.0259C37.7442 47.7666 37.9509 47.509 38.1595 47.2531L38.3533 47.411C38.5612 47.1559 38.771 46.9025 38.9829 46.6508L38.7916 46.4899C39.0043 46.2371 39.2189 45.9859 39.4355 45.7366L39.6243 45.9005C39.84 45.6521 40.0577 45.4054 40.2772 45.1604L40.0911 44.9936C40.3115 44.7476 40.5339 44.5033 40.7582 44.2609L40.9417 44.4306C41.1651 44.189 41.3904 43.9492 41.6176 43.7112L41.4367 43.5386C41.6647 43.2996 41.8946 43.0624 42.1263 42.827L42.3045 43.0024C42.5353 42.768 42.768 42.5353 43.0024 42.3045L42.827 42.1264C43.0624 41.8946 43.2996 41.6648 43.5386 41.4367L43.7111 41.6176C43.9492 41.3904 44.189 41.1652 44.4306 40.9417L44.2608 40.7582C44.5033 40.5339 44.7475 40.3116 44.9935 40.0911L45.1604 40.2773C45.4054 40.0577 45.6521 39.8401 45.9005 39.6243L45.7365 39.4356C45.9859 39.219 46.237 39.0043 46.4898 38.7916L46.6508 38.9829C46.9025 38.7711 47.1559 38.5612 47.411 38.3533L47.253 38.1595C47.509 37.9509 47.7666 37.7443 48.0258 37.5396L48.1807 37.7358C48.439 37.532 48.6988 37.3301 48.9603 37.1302L48.8085 36.9316C49.0709 36.731 49.335 36.5325 49.6006 36.336L49.7493 36.537C50.0136 36.3414 50.2796 36.1478 50.5471 35.9563L50.4015 35.7531C50.6701 35.5608 50.9402 35.3706 51.2119 35.1825L51.3542 35.388C51.6247 35.2007 51.8967 35.0155 52.1703 34.8324L52.0312 34.6246C52.3055 34.441 52.5812 34.2595 52.8585 34.0801L52.9943 34.29C53.2705 34.1113 53.5482 33.9347 53.8273 33.7603L53.6948 33.5483C53.975 33.3732 54.2566 33.2003 54.5396 33.0295L54.6688 33.2436C54.9502 33.0738 55.233 32.9061 55.5173 32.7407L55.3915 32.5246C55.6769 32.3585 55.9637 32.1945 56.2519 32.0328L56.3743 32.2508C56.6613 32.0897 56.9496 31.9309 57.2394 31.7742L57.1205 31.5543C57.4106 31.3974 57.7021 31.2427 57.995 31.0903L58.1104 31.312C58.4022 31.1602 58.6952 31.0106 58.9896 30.8632L58.8777 30.6397C59.1732 30.4917 59.47 30.346 59.7681 30.2026L59.8765 30.4279C60.1725 30.2855 60.4697 30.1454 60.7682 30.0076L60.6634 29.7806C60.9631 29.6422 61.2641 29.5061 61.5663 29.3723L61.6675 29.6009C61.9685 29.4676 62.2708 29.3366 62.5743 29.2079L62.4767 28.9778C62.7802 28.8491 63.0849 28.7227 63.3908 28.5987L63.4848 28.8304C63.7894 28.7069 64.0952 28.5857 64.4022 28.4668L64.3119 28.2337C64.6201 28.1144 64.9295 27.9974 65.24 27.8828L65.3266 28.1173C65.6346 28.0036 65.9438 27.8923 66.2541 27.7833L66.1713 27.5475C66.4825 27.4381 66.7949 27.3312 67.1084 27.2266L67.1875 27.4638C67.4998 27.3597 67.8131 27.2579 68.1275 27.1586L68.0522 26.9202C68.3666 26.8208 68.682 26.7239 68.9985 26.6294L69.0701 26.8689C69.3848 26.7749 69.7005 26.6833 70.0173 26.5942L69.9496 26.3535C70.2676 26.264 70.5867 26.1769 70.9067 26.0922L70.9707 26.3339C71.2883 26.2499 71.6068 26.1683 71.9264 26.0892L71.8663 25.8466C72.1862 25.7673 72.5071 25.6906 72.829 25.6162L72.8852 25.8598C73.2058 25.7858 73.5273 25.7142 73.8497 25.6451L73.7973 25.4007C74.12 25.3315 74.4436 25.2648 74.7681 25.2006L74.8167 25.4459C75.1385 25.3822 75.4612 25.321 75.7848 25.2623L75.7401 25.0163C76.065 24.9573 76.3907 24.9009 76.7173 24.8469L76.758 25.0936C77.0827 25.0399 77.4081 24.9887 77.7345 24.9401L77.6976 24.6928C78.0231 24.6443 78.3494 24.5983 78.6764 24.5547L78.7094 24.8025C79.0352 24.7592 79.3618 24.7183 79.6891 24.68L79.66 24.4317C79.9886 24.3932 80.318 24.3572 80.6481 24.3238L80.6733 24.5725C80.9991 24.5395 81.3255 24.509 81.6527 24.481L81.6314 24.2319C81.9599 24.2038 82.2892 24.1783 82.6191 24.1552L82.6365 24.4046C82.9651 24.3816 83.2944 24.3612 83.6244 24.3433L83.6109 24.0937C83.9395 24.0759 84.2687 24.0606 84.5986 24.0479L84.6083 24.2977C84.9361 24.285 85.2645 24.2748 85.5936 24.2672L85.5878 24.0173C85.9182 24.0096 86.2492 24.0045 86.5808 24.0019L86.5828 24.2519C86.7479 24.2506 86.9133 24.25 87.0787 24.25C87.2442 24.25 87.4095 24.2506 87.5747 24.2519L87.5767 24.0019C87.9083 24.0045 88.2393 24.0096 88.5697 24.0173L88.5639 24.2672C88.8929 24.2748 89.2214 24.285 89.5492 24.2977L89.5589 24.0479C89.8888 24.0606 90.218 24.0759 90.5466 24.0937L90.5331 24.3433C90.8631 24.3612 91.1924 24.3816 91.521 24.4046L91.5384 24.1552C91.8683 24.1783 92.1975 24.2038 92.526 24.2319L92.5047 24.481C92.8319 24.509 93.1584 24.5395 93.4842 24.5725L93.5094 24.3238C93.8395 24.3572 94.1688 24.3932 94.4974 24.4317L94.4683 24.68C94.7957 24.7183 95.1223 24.7592 95.448 24.8025L95.481 24.5547C95.8081 24.5983 96.1344 24.6443 96.4599 24.6928L96.423 24.9401C96.7493 24.9887 97.0748 25.0399 97.3994 25.0936L97.4402 24.8469C97.7668 24.9009 98.0925 24.9573 98.4174 25.0163L98.3727 25.2623C98.6963 25.321 99.019 25.3822 99.3408 25.4459L99.3893 25.2006C99.7138 25.2648 100.037 25.3315 100.36 25.4007L100.308 25.6451C100.63 25.7142 100.952 25.7858 101.272 25.8598L101.328 25.6162C101.65 25.6906 101.971 25.7673 102.291 25.8466L102.231 26.0892C102.551 26.1684 102.869 26.2499 103.187 26.3339L103.251 26.0922C103.571 26.1769 103.89 26.264 104.208 26.3535L104.14 26.5942C104.457 26.6833 104.773 26.7749 105.087 26.8689L105.159 26.6294C105.475 26.7239 105.791 26.8208 106.105 26.9202L106.03 27.1586C106.344 27.2579 106.658 27.3597 106.97 27.4638L107.049 27.2266C107.363 27.3312 107.675 27.4381 107.986 27.5475L107.903 27.7833C108.214 27.8923 108.523 28.0036 108.831 28.1173L108.917 27.8828C109.228 27.9974 109.537 28.1143 109.846 28.2337L109.755 28.4668C110.062 28.5857 110.368 28.7069 110.673 28.8304L110.767 28.5987C111.073 28.7227 111.377 28.8491 111.681 28.9778L111.583 29.2079C111.887 29.3366 112.189 29.4676 112.49 29.6009L112.591 29.3723C112.893 29.5061 113.194 29.6422 113.494 29.7806L113.389 30.0076C113.688 30.1454 113.985 30.2855 114.281 30.4279L114.389 30.2026C114.687 30.346 114.984 30.4917 115.28 30.6396L115.168 30.8632C115.462 31.0106 115.755 31.1602 116.047 31.312L116.162 31.0903C116.455 31.2427 116.747 31.3974 117.037 31.5543L116.918 31.7742C117.208 31.9309 117.496 32.0897 117.783 32.2508L117.905 32.0328C118.194 32.1945 118.481 32.3585 118.766 32.5246L118.64 32.7407C118.924 32.9061 119.207 33.0738 119.489 33.2435L119.618 33.0295C119.901 33.2002 120.182 33.3732 120.463 33.5482L120.33 33.7602C120.609 33.9347 120.887 34.1113 121.163 34.29L121.299 34.0801C121.576 34.2595 121.852 34.441 122.126 34.6246L121.987 34.8324C122.261 35.0155 122.533 35.2007 122.803 35.388L122.945 35.1825C123.217 35.3706 123.487 35.5608 123.756 35.753L123.61 35.9563C123.878 36.1478 124.144 36.3414 124.408 36.5369L124.557 36.336C124.822 36.5325 125.086 36.731 125.349 36.9316L125.197 37.1302C125.459 37.3301 125.718 37.5319 125.977 37.7358L126.132 37.5396C126.391 37.7442 126.648 37.9509 126.904 38.1595L126.746 38.3533C127.002 38.5612 127.255 38.7711 127.507 38.9829L127.668 38.7916C127.92 39.0043 128.172 39.219 128.421 39.4355L128.257 39.6243C128.505 39.84 128.752 40.0577 128.997 40.2772L129.164 40.0911C129.41 40.3115 129.654 40.5339 129.897 40.7582L129.727 40.9417C129.968 41.1651 130.208 41.3904 130.446 41.6176L130.619 41.4367C130.858 41.6647 131.095 41.8946 131.33 42.1264L131.155 42.3045C131.389 42.5353 131.622 42.768 131.853 43.0024L132.031 42.827C132.263 43.0624 132.493 43.2996 132.721 43.5386L132.54 43.7111C132.767 43.9492 132.992 44.189 133.216 44.4306L133.399 44.2608C133.623 44.5033 133.846 44.7476 134.066 44.9935L133.88 45.1604C134.1 45.4054 134.317 45.6521 134.533 45.9005L134.722 45.7365C134.938 45.9859 135.153 46.237 135.366 46.4898L135.175 46.6508C135.386 46.9025 135.596 47.1559 135.804 47.411L135.998 47.253C136.207 47.509 136.413 47.7666 136.618 48.0258L136.422 48.1807C136.625 48.439 136.827 48.6988 137.027 48.9603L137.226 48.8085C137.426 49.0709 137.625 49.335 137.821 49.6006L137.62 49.7493C137.816 50.0136 138.01 50.2796 138.201 50.5471L138.404 50.4015C138.597 50.6701 138.787 50.9402 138.975 51.2119L138.769 51.3542C138.957 51.6247 139.142 51.8967 139.325 52.1703L139.533 52.0312C139.716 52.3055 139.898 52.5812 140.077 52.8585L139.867 52.9943C140.046 53.2705 140.223 53.5482 140.397 53.8273L140.609 53.6948C140.784 53.975 140.957 54.2566 141.128 54.5396L140.914 54.6688C141.084 54.9502 141.251 55.233 141.417 55.5173L141.633 55.3915C141.799 55.6769 141.963 55.9637 142.125 56.2519L141.907 56.3743C142.068 56.6613 142.227 56.9496 142.383 57.2394L142.603 57.1205C142.76 57.4106 142.915 57.7021 143.067 57.995L142.845 58.1105C142.997 58.4022 143.147 58.6952 143.294 58.9896L143.518 58.8777C143.666 59.1732 143.811 59.47 143.955 59.7681L143.73 59.8765C143.872 60.1725 144.012 60.4697 144.15 60.7682L144.377 60.6634C144.515 60.9631 144.651 61.2641 144.785 61.5663L144.557 61.6675C144.69 61.9685 144.821 62.2708 144.95 62.5743L145.18 62.4767C145.308 62.7802 145.435 63.0849 145.559 63.3908L145.327 63.4848C145.451 63.7894 145.572 64.0952 145.691 64.4022L145.924 64.3119C146.043 64.6201 146.16 64.9295 146.275 65.2401L146.04 65.3266C146.154 65.6346 146.265 65.9438 146.374 66.2541L146.61 66.1713C146.719 66.4825 146.826 66.7949 146.931 67.1084L146.694 67.1875C146.798 67.4998 146.9 67.8131 146.999 68.1275L147.237 68.0522C147.337 68.3666 147.434 68.682 147.528 68.9985L147.289 69.0701C147.383 69.3848 147.474 69.7006 147.563 70.0173L147.804 69.9496C147.893 70.2676 147.981 70.5867 148.065 70.9068L147.824 70.9707C147.908 71.2883 147.989 71.6068 148.068 71.9264L148.311 71.8663C148.39 72.1862 148.467 72.5071 148.541 72.829L148.298 72.8852C148.372 73.2058 148.443 73.5273 148.512 73.8497L148.757 73.7973C148.826 74.12 148.893 74.4436 148.957 74.7682L148.712 74.8167C148.775 75.1385 148.836 75.4612 148.895 75.7848L149.141 75.7401C149.2 76.065 149.257 76.3907 149.311 76.7173L149.064 76.758C149.118 77.0827 149.169 77.4082 149.217 77.7345L149.465 77.6976C149.513 78.0231 149.559 78.3494 149.603 78.6764L149.355 78.7094C149.398 79.0352 149.439 79.3618 149.477 79.6891L149.726 79.6601C149.764 79.9886 149.8 80.318 149.834 80.6481L149.585 80.6733C149.618 80.9991 149.648 81.3255 149.676 81.6528L149.926 81.6314C149.954 81.9599 149.979 82.2892 150.002 82.6191L149.753 82.6365C149.776 82.9651 149.796 83.2944 149.814 83.6244L150.064 83.6109C150.082 83.9395 150.097 84.2687 150.11 84.5986L149.86 84.6083C149.872 84.9361 149.883 85.2646 149.89 85.5936L150.14 85.5878Z" fill="#111111" stroke="white" stroke-width="0.5" stroke-dasharray="1 1"/>
<path d="M86.3373 86.3362L99.6951 50.7153" stroke="#FF0000" stroke-dasharray="2 2"/>
<path d="M86.3373 86.3354L59.6216 71.4934" stroke="#FF0000" stroke-dasharray="2 2"/>
<path d="M86.3373 86.3362L61.1058 111.568" stroke="#FF0000" stroke-dasharray="2 2"/>
<path d="M130.316 109.157L127.222 104.283L124.548 109.399L130.316 109.157ZM86.0845 86.6005L126.097 107.516L126.56 106.63L86.5478 85.7143L86.0845 86.6005Z" fill="#00FF1A"/>
<path d="M47.3162 75.7678L58.332 59.4202L64.0235 78.2934L56.2362 73.284L47.3162 75.7678Z" fill="#3F51B5"/>
<path d="M90.7892 50.3596L102.607 34.5822L107.35 53.7159L99.822 48.3241L90.7892 50.3596Z" fill="#FFEB3B"/>
<path d="M54.5273 122.192L58.9695 102.986L71.0332 118.576L61.9695 116.683L54.5273 122.192Z" fill="#FFEB3B"/>
<path d="M77.4318 95.2409L85.8803 77.4305L94.3289 95.2409L85.8803 91.4518L77.4318 95.2409Z" fill="#3F51B5"/>
<path d="M67.3864 156H66.6818C66.6402 155.797 66.5672 155.619 66.4631 155.466C66.3608 155.312 66.2358 155.184 66.0881 155.08C65.9422 154.973 65.7803 154.894 65.6023 154.841C65.4242 154.788 65.2386 154.761 65.0455 154.761C64.6932 154.761 64.3741 154.85 64.0881 155.028C63.804 155.206 63.5777 155.469 63.4091 155.815C63.2424 156.162 63.1591 156.587 63.1591 157.091C63.1591 157.595 63.2424 158.02 63.4091 158.366C63.5777 158.713 63.804 158.975 64.0881 159.153C64.3741 159.331 64.6932 159.42 65.0455 159.42C65.2386 159.42 65.4242 159.394 65.6023 159.341C65.7803 159.288 65.9422 159.209 66.0881 159.105C66.2358 158.999 66.3608 158.869 66.4631 158.716C66.5672 158.561 66.6402 158.383 66.6818 158.182H67.3864C67.3333 158.479 67.2367 158.745 67.0966 158.98C66.9564 159.215 66.7822 159.415 66.5739 159.58C66.3655 159.742 66.1316 159.866 65.8722 159.952C65.6146 160.037 65.339 160.08 65.0455 160.08C64.5492 160.08 64.108 159.958 63.7216 159.716C63.3352 159.473 63.0313 159.129 62.8097 158.682C62.5881 158.235 62.4773 157.705 62.4773 157.091C62.4773 156.477 62.5881 155.947 62.8097 155.5C63.0313 155.053 63.3352 154.708 63.7216 154.466C64.108 154.223 64.5492 154.102 65.0455 154.102C65.339 154.102 65.6146 154.145 65.8722 154.23C66.1316 154.315 66.3655 154.44 66.5739 154.605C66.7822 154.768 66.9564 154.967 67.0966 155.202C67.2367 155.435 67.3333 155.701 67.3864 156ZM69.1044 154.182V160H68.4339V154.182H69.1044ZM72.1051 160.091C71.7112 160.091 71.3655 159.997 71.0682 159.81C70.7727 159.622 70.5417 159.36 70.375 159.023C70.2102 158.686 70.1278 158.292 70.1278 157.841C70.1278 157.386 70.2102 156.99 70.375 156.651C70.5417 156.312 70.7727 156.048 71.0682 155.861C71.3655 155.673 71.7112 155.58 72.1051 155.58C72.4991 155.58 72.8438 155.673 73.1392 155.861C73.4366 156.048 73.6676 156.312 73.8324 156.651C73.9991 156.99 74.0824 157.386 74.0824 157.841C74.0824 158.292 73.9991 158.686 73.8324 159.023C73.6676 159.36 73.4366 159.622 73.1392 159.81C72.8438 159.997 72.4991 160.091 72.1051 160.091ZM72.1051 159.489C72.4044 159.489 72.6506 159.412 72.8438 159.259C73.0369 159.105 73.1799 158.903 73.2727 158.653C73.3655 158.403 73.4119 158.133 73.4119 157.841C73.4119 157.549 73.3655 157.277 73.2727 157.026C73.1799 156.774 73.0369 156.57 72.8438 156.415C72.6506 156.259 72.4044 156.182 72.1051 156.182C71.8059 156.182 71.5597 156.259 71.3665 156.415C71.1733 156.57 71.0303 156.774 70.9375 157.026C70.8447 157.277 70.7983 157.549 70.7983 157.841C70.7983 158.133 70.8447 158.403 70.9375 158.653C71.0303 158.903 71.1733 159.105 71.3665 159.259C71.5597 159.412 71.8059 159.489 72.1051 159.489ZM78.1967 156.614L77.5945 156.784C77.5566 156.684 77.5007 156.586 77.4268 156.491C77.3549 156.395 77.2564 156.315 77.1314 156.253C77.0064 156.19 76.8464 156.159 76.6513 156.159C76.3842 156.159 76.1617 156.221 75.9837 156.344C75.8075 156.465 75.7195 156.619 75.7195 156.807C75.7195 156.973 75.7801 157.105 75.9013 157.202C76.0225 157.298 76.2119 157.379 76.4695 157.443L77.1172 157.602C77.5073 157.697 77.7981 157.842 77.9893 158.037C78.1806 158.23 78.2763 158.479 78.2763 158.784C78.2763 159.034 78.2043 159.258 78.0604 159.455C77.9183 159.652 77.7195 159.807 77.4638 159.92C77.2081 160.034 76.9107 160.091 76.5717 160.091C76.1267 160.091 75.7583 159.994 75.4666 159.801C75.175 159.608 74.9903 159.326 74.9126 158.955L75.549 158.795C75.6096 159.03 75.7242 159.206 75.8928 159.324C76.0632 159.441 76.2857 159.5 76.5604 159.5C76.8729 159.5 77.121 159.434 77.3047 159.301C77.4903 159.167 77.5831 159.006 77.5831 158.818C77.5831 158.667 77.5301 158.54 77.424 158.438C77.3179 158.333 77.1551 158.256 76.9354 158.205L76.2081 158.034C75.8085 157.939 75.5149 157.793 75.3274 157.594C75.1418 157.393 75.049 157.142 75.049 156.841C75.049 156.595 75.1181 156.377 75.2564 156.188C75.3965 155.998 75.5869 155.849 75.8274 155.741C76.0698 155.634 76.3445 155.58 76.6513 155.58C77.0831 155.58 77.4221 155.674 77.6683 155.864C77.9164 156.053 78.0926 156.303 78.1967 156.614ZM81.1151 160.091C80.6946 160.091 80.3319 159.998 80.027 159.812C79.724 159.625 79.4901 159.364 79.3253 159.028C79.1624 158.691 79.081 158.299 79.081 157.852C79.081 157.405 79.1624 157.011 79.3253 156.67C79.4901 156.328 79.7192 156.061 80.0128 155.869C80.3082 155.676 80.6529 155.58 81.0469 155.58C81.2741 155.58 81.4986 155.617 81.7202 155.693C81.9418 155.769 82.1435 155.892 82.3253 156.062C82.5071 156.231 82.652 156.455 82.7599 156.733C82.8679 157.011 82.9219 157.354 82.9219 157.761V158.045H79.5582V157.466H82.2401C82.2401 157.22 82.1908 157 82.0923 156.807C81.9957 156.614 81.8575 156.461 81.6776 156.349C81.4995 156.238 81.2893 156.182 81.0469 156.182C80.7798 156.182 80.5488 156.248 80.3537 156.381C80.1605 156.511 80.0118 156.682 79.9077 156.892C79.8035 157.102 79.7514 157.328 79.7514 157.568V157.955C79.7514 158.284 79.8082 158.563 79.9219 158.793C80.0374 159.02 80.1974 159.193 80.402 159.312C80.6065 159.43 80.8442 159.489 81.1151 159.489C81.2912 159.489 81.4503 159.464 81.5923 159.415C81.7363 159.364 81.8603 159.288 81.9645 159.188C82.0687 159.085 82.1491 158.958 82.206 158.807L82.8537 158.989C82.7855 159.208 82.6709 159.402 82.5099 159.568C82.349 159.733 82.1501 159.862 81.9134 159.955C81.6766 160.045 81.4105 160.091 81.1151 160.091ZM86.2827 160V154.182H88.2486C88.7031 154.182 89.0762 154.259 89.3679 154.415C89.6596 154.568 89.8755 154.779 90.0156 155.048C90.1558 155.317 90.2259 155.623 90.2259 155.966C90.2259 156.309 90.1558 156.613 90.0156 156.878C89.8755 157.143 89.6605 157.351 89.3707 157.503C89.081 157.652 88.7107 157.727 88.2599 157.727H86.669V157.091H88.2372C88.5478 157.091 88.7978 157.045 88.9872 156.955C89.1785 156.864 89.3168 156.735 89.402 156.568C89.4891 156.4 89.5327 156.199 89.5327 155.966C89.5327 155.733 89.4891 155.529 89.402 155.355C89.3149 155.181 89.1757 155.046 88.9844 154.952C88.7931 154.855 88.5402 154.807 88.2259 154.807H86.9872V160H86.2827ZM89.0213 157.386L90.4531 160H89.6349L88.2259 157.386H89.0213ZM92.593 160.102C92.3165 160.102 92.0656 160.05 91.8402 159.946C91.6148 159.84 91.4358 159.688 91.3033 159.489C91.1707 159.288 91.1044 159.045 91.1044 158.761C91.1044 158.511 91.1536 158.309 91.2521 158.153C91.3506 157.996 91.4822 157.873 91.647 157.784C91.8118 157.695 91.9936 157.629 92.1925 157.585C92.3932 157.54 92.5949 157.504 92.7976 157.477C93.0627 157.443 93.2777 157.418 93.4425 157.401C93.6091 157.382 93.7304 157.35 93.8061 157.307C93.8838 157.263 93.9226 157.187 93.9226 157.08V157.057C93.9226 156.777 93.8459 156.559 93.6925 156.403C93.541 156.248 93.3108 156.17 93.0021 156.17C92.6821 156.17 92.4311 156.241 92.2493 156.381C92.0675 156.521 91.9396 156.67 91.8658 156.83L91.2294 156.602C91.343 156.337 91.4946 156.131 91.6839 155.983C91.8752 155.833 92.0836 155.729 92.3089 155.67C92.5362 155.61 92.7597 155.58 92.9794 155.58C93.1196 155.58 93.2805 155.597 93.4624 155.631C93.6461 155.663 93.8232 155.73 93.9936 155.832C94.166 155.935 94.3089 156.089 94.4226 156.295C94.5362 156.502 94.593 156.778 94.593 157.125V160H93.9226V159.409H93.8885C93.843 159.504 93.7673 159.605 93.6612 159.713C93.5552 159.821 93.4141 159.913 93.2379 159.989C93.0618 160.064 92.8468 160.102 92.593 160.102ZM92.6953 159.5C92.9605 159.5 93.1839 159.448 93.3658 159.344C93.5495 159.24 93.6877 159.105 93.7805 158.94C93.8752 158.776 93.9226 158.602 93.9226 158.42V157.807C93.8942 157.841 93.8317 157.872 93.7351 157.901C93.6404 157.927 93.5305 157.951 93.4055 157.972C93.2824 157.991 93.1622 158.008 93.0447 158.023C92.9292 158.036 92.8355 158.047 92.7635 158.057C92.5893 158.08 92.4264 158.116 92.2749 158.168C92.1252 158.217 92.004 158.292 91.9112 158.392C91.8203 158.491 91.7749 158.625 91.7749 158.795C91.7749 159.028 91.861 159.205 92.0334 159.324C92.2076 159.441 92.4283 159.5 92.6953 159.5ZM97.4645 160.091C97.1009 160.091 96.7798 159.999 96.5014 159.815C96.223 159.63 96.0052 159.368 95.848 159.031C95.6908 158.692 95.6122 158.292 95.6122 157.83C95.6122 157.371 95.6908 156.973 95.848 156.636C96.0052 156.299 96.224 156.039 96.5043 155.855C96.7846 155.671 97.1084 155.58 97.4759 155.58C97.7599 155.58 97.9844 155.627 98.1491 155.722C98.3158 155.814 98.4427 155.92 98.5298 156.04C98.6188 156.157 98.688 156.254 98.7372 156.33H98.794V154.182H99.4645V160H98.8168V159.33H98.7372C98.688 159.409 98.6179 159.509 98.527 159.631C98.4361 159.75 98.3063 159.857 98.1378 159.952C97.9692 160.045 97.7448 160.091 97.4645 160.091ZM97.5554 159.489C97.8243 159.489 98.0516 159.419 98.2372 159.278C98.4228 159.136 98.5639 158.94 98.6605 158.69C98.7571 158.438 98.8054 158.148 98.8054 157.818C98.8054 157.492 98.758 157.207 98.6634 156.963C98.5687 156.717 98.4285 156.526 98.2429 156.389C98.0573 156.251 97.8281 156.182 97.5554 156.182C97.2713 156.182 97.0346 156.255 96.8452 156.401C96.6577 156.545 96.5166 156.741 96.4219 156.989C96.3291 157.235 96.2827 157.511 96.2827 157.818C96.2827 158.129 96.33 158.411 96.4247 158.665C96.5213 158.917 96.6634 159.117 96.8509 159.267C97.0402 159.415 97.2751 159.489 97.5554 159.489ZM100.786 160V155.636H101.456V160H100.786ZM101.126 154.909C100.996 154.909 100.883 154.865 100.788 154.776C100.696 154.687 100.649 154.58 100.649 154.455C100.649 154.33 100.696 154.223 100.788 154.134C100.883 154.045 100.996 154 101.126 154C101.257 154 101.369 154.045 101.462 154.134C101.556 154.223 101.604 154.33 101.604 154.455C101.604 154.58 101.556 154.687 101.462 154.776C101.369 154.865 101.257 154.909 101.126 154.909ZM105.434 158.216V155.636H106.104V160H105.434V159.261H105.388C105.286 159.483 105.127 159.671 104.911 159.827C104.695 159.98 104.423 160.057 104.093 160.057C103.82 160.057 103.578 159.997 103.366 159.878C103.154 159.757 102.987 159.575 102.866 159.332C102.745 159.088 102.684 158.78 102.684 158.409V155.636H103.354V158.364C103.354 158.682 103.443 158.936 103.621 159.125C103.801 159.314 104.031 159.409 104.309 159.409C104.476 159.409 104.645 159.366 104.817 159.281C104.992 159.196 105.138 159.065 105.255 158.889C105.374 158.713 105.434 158.489 105.434 158.216ZM110.423 156.614L109.821 156.784C109.783 156.684 109.727 156.586 109.653 156.491C109.581 156.395 109.483 156.315 109.358 156.253C109.233 156.19 109.073 156.159 108.878 156.159C108.611 156.159 108.388 156.221 108.21 156.344C108.034 156.465 107.946 156.619 107.946 156.807C107.946 156.973 108.007 157.105 108.128 157.202C108.249 157.298 108.438 157.379 108.696 157.443L109.344 157.602C109.734 157.697 110.025 157.842 110.216 158.037C110.407 158.23 110.503 158.479 110.503 158.784C110.503 159.034 110.431 159.258 110.287 159.455C110.145 159.652 109.946 159.807 109.69 159.92C109.435 160.034 109.137 160.091 108.798 160.091C108.353 160.091 107.985 159.994 107.693 159.801C107.402 159.608 107.217 159.326 107.139 158.955L107.776 158.795C107.836 159.03 107.951 159.206 108.119 159.324C108.29 159.441 108.512 159.5 108.787 159.5C109.099 159.5 109.348 159.434 109.531 159.301C109.717 159.167 109.81 159.006 109.81 158.818C109.81 158.667 109.757 158.54 109.651 158.438C109.545 158.333 109.382 158.256 109.162 158.205L108.435 158.034C108.035 157.939 107.741 157.793 107.554 157.594C107.368 157.393 107.276 157.142 107.276 156.841C107.276 156.595 107.345 156.377 107.483 156.188C107.623 155.998 107.813 155.849 108.054 155.741C108.296 155.634 108.571 155.58 108.878 155.58C109.31 155.58 109.649 155.674 109.895 155.864C110.143 156.053 110.319 156.303 110.423 156.614Z" fill="white"/>
</svg>
